<?xml version="1.0" standalone="no"?>
<!DOCTYPE svg PUBLIC "-//W3C//DTD SVG 20010904//EN"
 "http://www.w3.org/TR/2001/REC-SVG-20010904/DTD/svg10.dtd">
<svg version="1.0" xmlns="http://www.w3.org/2000/svg"
 width="1000.000000pt" height="1000.000000pt" viewBox="0 0 1000.000000 1000.000000"
 preserveAspectRatio="xMidYMid meet">
<metadata>
Created by potrace 1.14, written by Peter Selinger 2001-2017
</metadata>
<g transform="translate(0.000000,1000.000000) scale(0.100000,-0.100000)"
fill="#000000" stroke="none">
<path d="M3085 9993 c-136 -18 -361 -95 -515 -176 -296 -156 -645 -446 -951
-790 -46 -50 -86 -94 -89 -97 -20 -16 -260 -317 -369 -463 -405 -542 -633
-943 -821 -1438 -103 -272 -208 -643 -246 -869 -3 -14 -7 -36 -9 -50 -13 -63
-15 -77 -20 -110 -3 -19 -7 -48 -10 -65 -11 -66 -15 -93 -21 -155 -3 -36 -7
-76 -9 -89 -20 -123 -28 -722 -12 -911 15 -186 17 -206 27 -275 5 -38 12 -90
15 -115 4 -25 15 -94 26 -155 11 -60 22 -123 25 -140 14 -76 107 -431 138
-525 72 -220 129 -369 195 -513 17 -37 31 -70 31 -72 0 -6 140 -288 161 -326
8 -13 21 -32 29 -43 8 -10 13 -19 11 -20 -3 0 2 -12 11 -26 8 -14 43 -72 78
-130 280 -467 678 -928 1110 -1286 185 -153 489 -370 620 -441 25 -13 68 -38
95 -55 76 -46 337 -179 455 -231 401 -176 838 -306 1240 -367 41 -6 86 -13
100 -16 14 -2 50 -6 80 -9 30 -3 64 -8 75 -10 132 -25 767 -26 925 -1 14 2 52
7 85 11 32 4 66 8 75 10 8 1 38 6 65 9 152 21 369 67 570 121 156 42 459 145
560 190 16 7 80 35 140 61 216 93 492 242 690 372 106 69 297 202 305 212 3 3
37 30 75 59 73 57 238 196 290 245 321 304 529 541 746 851 352 504 630 1107
770 1670 16 66 34 136 39 155 9 31 34 159 46 225 2 14 8 51 14 83 5 31 12 75
15 97 3 22 8 51 10 65 2 14 7 52 10 85 4 33 8 71 10 84 26 161 26 935 0 1070
-2 11 -6 44 -9 73 -9 82 -16 131 -21 158 -2 14 -7 43 -10 65 -3 23 -7 52 -10
65 -5 27 -23 123 -31 167 -3 16 -9 44 -14 63 -5 19 -11 46 -14 60 -6 30 -10
48 -30 125 -121 484 -315 948 -585 1397 -114 192 -367 548 -566 798 -193 244
-497 575 -646 705 -210 183 -269 229 -419 328 -176 116 -389 215 -550 257
-222 59 -481 49 -689 -27 -413 -149 -816 -542 -1157 -1129 -67 -115 -214 -406
-214 -423 0 -6 -4 -11 -10 -11 -5 0 -10 5 -10 10 0 18 -121 260 -197 393 -60
104 -180 296 -216 342 -4 6 -37 51 -74 100 -37 50 -70 92 -73 95 -3 3 -34 38
-69 78 -293 336 -602 534 -931 596 -64 13 -276 18 -345 9z"/>
</g>
</svg>
